<?xml version="1.0" encoding="UTF-8"?>
<svg xmlns="http://www.w3.org/2000/svg" viewBox="0 0 1185 1450" font-family="-apple-system,BlinkMacSystemFont,'Segoe UI',Helvetica,Arial,sans-serif">
  <defs>
    <marker id="arrow" markerWidth="10" markerHeight="10" refX="9" refY="3" orient="auto" markerUnits="strokeWidth">
      <path d="M0,0 L0,6 L9,3 z" fill="#444"/>
    </marker>
    <marker id="arrowP" markerWidth="10" markerHeight="10" refX="9" refY="3" orient="auto" markerUnits="strokeWidth">
      <path d="M0,0 L0,6 L9,3 z" fill="#7a4a8a"/>
    </marker>
    <style>
      .title       { font-size: 23px; font-weight: 800; fill: #111; }
      .subtitle    { font-size: 13px; fill: #555; }
      .layer-tag   { font-size: 12px; font-weight: 700; fill: #fff; letter-spacing: 0.5px; }
      .layer-name  { font-size: 17px; font-weight: 800; fill: #fff; }
      .layer-note  { font-size: 10px; fill: #fff; opacity: 0.92; font-style: italic; }
      .mod         { font-size: 13px; font-weight: 700; fill: #1a1a1a; }
      .mod-sub     { font-size: 10px; fill: #666; }
      .mod-flag    { font-size: 10px; font-weight: 700; fill: #7a4a8a; }
      .sector-tag  { font-size: 10px; font-weight: 700; fill: #555; letter-spacing: 0.5px; }
      .arrow-lbl   { font-size: 11px; fill: #444; font-style: italic; }
      .arrow-lblP  { font-size: 11px; fill: #7a4a8a; font-style: italic; font-weight: 700; }
      .footer      { font-size: 11px; fill: #666; }
      .legend      { font-size: 11px; font-weight: 700; fill: #333; }
    </style>
  </defs>

  <rect width="1140" height="1450" fill="#fafafa"/>

  <!-- Header -->
  <text x="570" y="32" text-anchor="middle" class="title">openTEPES layered architecture — implemented and planned</text>
  <text x="570" y="52" text-anchor="middle" class="subtitle">Pure-pandas I/O  ▸  Pyomo construction  ▸  Formulation  ▸  Solver  ▸  Results — symmetric Elec / Heat / H2 / Hydro · runner orchestrates sweeps</text>

  <!-- Legend: implemented vs planned -->
  <rect x="724" y="60" width="18" height="13" rx="3" fill="#d4efdf" stroke="#2e7d5f" stroke-width="1.1"/>
  <text x="747" y="71" class="legend">implemented (merged)</text>
  <rect x="905" y="60" width="18" height="13" rx="3" fill="#fff" stroke="#888" stroke-width="1.1"/>
  <text x="928" y="71" class="legend">planned</text>

  <!-- ================== LAYER 1: ENTRY ================== -->
  <g>
    <rect x="20" y="75" width="1100" height="85" rx="10" fill="#eef2fa" stroke="#4a5a8a" stroke-width="1.5"/>
    <rect x="20" y="75" width="140" height="85" rx="10" fill="#4a5a8a"/>
    <text x="90" y="105" text-anchor="middle" class="layer-tag">LAYER 1</text>
    <text x="90" y="124" text-anchor="middle" class="layer-name">Entry</text>
    <text x="90" y="142" text-anchor="middle" class="layer-note">CLI + orchestration</text>

    <rect x="180" y="93" width="155" height="48" rx="8" fill="#fff" stroke="#4a5a8a" stroke-width="1.2"/>
    <text x="257" y="112" text-anchor="middle" class="mod">cli.py</text>
    <text x="257" y="128" text-anchor="middle" class="mod-sub">argparse + dispatch</text>

    <text x="355" y="120" class="arrow-lbl">▶</text>

    <rect x="375" y="93" width="155" height="48" rx="8" fill="#fff" stroke="#4a5a8a" stroke-width="1.2"/>
    <text x="452" y="112" text-anchor="middle" class="mod">run.py</text>
    <text x="452" y="128" text-anchor="middle" class="mod-sub">single-solve pipeline</text>

    <text x="550" y="120" class="arrow-lblP">▶ sweep</text>

    <rect x="610" y="93" width="170" height="48" rx="8" fill="#d4efdf" stroke="#4a5a8a" stroke-width="1.2"/>
    <text x="695" y="112" text-anchor="middle" class="mod">runner.py</text>
    <text x="695" y="128" text-anchor="middle" class="mod-sub">parallel sweep orchestrator</text>

    <rect x="800" y="93" width="305" height="48" rx="8" fill="#f6effa" stroke="#7a4a8a" stroke-width="1.0" stroke-dasharray="3 3"/>
    <text x="952" y="111" text-anchor="middle" class="mod-flag">backends: multiprocessing · joblib</text>
    <text x="952" y="127" text-anchor="middle" class="mod-flag">slurm · dask · mpi · ray</text>
  </g>

  <!-- arrow 1 -->
  <line x1="570" y1="165" x2="570" y2="195" stroke="#444" stroke-width="2" marker-end="url(#arrow)"/>

  <!-- ================== LAYER 2: I/O ================== -->
  <g>
    <rect x="20" y="200" width="1100" height="110" rx="10" fill="#e8f5ed" stroke="#2e7d5f" stroke-width="1.5"/>
    <rect x="20" y="200" width="140" height="110" rx="10" fill="#2e7d5f"/>
    <text x="90" y="230" text-anchor="middle" class="layer-tag">LAYER 2</text>
    <text x="90" y="251" text-anchor="middle" class="layer-name">I/O</text>
    <text x="90" y="266" text-anchor="middle" class="layer-note">openTEPES_Input*.py</text>
    <text x="90" y="279" text-anchor="middle" class="layer-note">no pyomo — pure</text>
    <text x="90" y="292" text-anchor="middle" class="layer-note">pandas / SQL</text>

    <rect x="175" y="225" width="140" height="62" rx="8" fill="#d4efdf" stroke="#2e7d5f" stroke-width="1.2"/>
    <text x="245" y="247" text-anchor="middle" class="mod">InputSchema.py</text>
    <text x="245" y="263" text-anchor="middle" class="mod-sub">TABLE_SPECS</text>
    <text x="245" y="277" text-anchor="middle" class="mod-sub">single source of truth</text>

    <rect x="325" y="225" width="140" height="62" rx="8" fill="#d4efdf" stroke="#2e7d5f" stroke-width="1.2"/>
    <text x="395" y="247" text-anchor="middle" class="mod">InputSource.py</text>
    <text x="395" y="263" text-anchor="middle" class="mod-sub">InputSource ABC</text>
    <text x="395" y="277" text-anchor="middle" class="mod-sub">open_source() · shapes</text>

    <rect x="475" y="225" width="140" height="62" rx="8" fill="#d4efdf" stroke="#2e7d5f" stroke-width="1.2"/>
    <text x="545" y="247" text-anchor="middle" class="mod">InputCSVSource.py</text>
    <text x="545" y="263" text-anchor="middle" class="mod-sub">CSVSource</text>
    <text x="545" y="277" text-anchor="middle" class="mod-sub">historical backend</text>

    <rect x="625" y="225" width="150" height="62" rx="8" fill="#d4efdf" stroke="#2e7d5f" stroke-width="1.2"/>
    <text x="700" y="247" text-anchor="middle" class="mod">InputDuckDBSource.py</text>
    <text x="700" y="263" text-anchor="middle" class="mod-sub">DuckDBSource</text>
    <text x="700" y="277" text-anchor="middle" class="mod-sub">streaming SQL backend</text>

    <rect x="785" y="225" width="155" height="62" rx="8" fill="#d4efdf" stroke="#2e7d5f" stroke-width="1.2"/>
    <text x="862" y="246" text-anchor="middle" class="mod">cases.py</text>
    <text x="862" y="261" text-anchor="middle" class="mod-flag">★ sweep-enabling</text>
    <text x="862" y="275" text-anchor="middle" class="mod-sub">Case = baseline + overlay</text>

    <rect x="950" y="225" width="155" height="62" rx="8" fill="#fff" stroke="#2e7d5f" stroke-width="1.2" stroke-dasharray="4 3"/>
    <text x="1027" y="247" text-anchor="middle" class="mod">parquet_source.py</text>
    <text x="1027" y="263" text-anchor="middle" class="mod-sub" font-style="italic">future</text>
    <text x="1027" y="277" text-anchor="middle" class="mod-sub" font-style="italic">drop-in backend</text>
  </g>

  <!-- arrow 2 -->
  <line x1="570" y1="315" x2="570" y2="355" stroke="#444" stroke-width="2" marker-end="url(#arrow)"/>
  <text x="585" y="338" class="arrow-lbl">DataFrames + (optional) overlay</text>

  <!-- ================== LAYER 3: MODEL ================== -->
  <g>
    <rect x="20" y="360" width="1100" height="110" rx="10" fill="#faecdc" stroke="#b5651d" stroke-width="1.5"/>
    <rect x="20" y="360" width="140" height="110" rx="10" fill="#b5651d"/>
    <text x="90" y="390" text-anchor="middle" class="layer-tag">LAYER 3</text>
    <text x="90" y="408" text-anchor="middle" class="layer-name">Model</text>
    <text x="90" y="424" text-anchor="middle" class="layer-note">openTEPES_InputData.py</text>
    <text x="90" y="437" text-anchor="middle" class="layer-note">+ DataConfiguration</text>
    <text x="90" y="450" text-anchor="middle" class="layer-note">+ SettingUpVariables</text>

    <rect x="175" y="383" width="210" height="65" rx="8" fill="#d4efdf" stroke="#2e7d5f" stroke-width="1.2"/>
    <text x="280" y="404" text-anchor="middle" class="mod">InputData.py</text>
    <text x="280" y="420" text-anchor="middle" class="mod-sub">InputData</text>
    <text x="280" y="434" text-anchor="middle" class="mod-sub">reads sets + params</text>

    <rect x="405" y="383" width="250" height="65" rx="8" fill="#d4efdf" stroke="#2e7d5f" stroke-width="1.2"/>
    <text x="530" y="404" text-anchor="middle" class="mod">DataConfiguration.py</text>
    <text x="530" y="420" text-anchor="middle" class="mod-sub">DataConfiguration</text>
    <text x="530" y="434" text-anchor="middle" class="mod-sub">derived sets &amp; flags</text>

    <rect x="675" y="383" width="250" height="65" rx="8" fill="#d4efdf" stroke="#2e7d5f" stroke-width="1.2"/>
    <text x="800" y="404" text-anchor="middle" class="mod">SettingUpVariables.py</text>
    <text x="800" y="420" text-anchor="middle" class="mod-sub">SettingUpVariables</text>
    <text x="800" y="434" text-anchor="middle" class="mod-sub">decision Vars + bounds</text>

    <text x="945" y="402" class="mod-sub">★ planned (within</text>
    <text x="945" y="417" class="mod-sub">InputData): split</text>
    <text x="945" y="432" class="mod-sub">sets/params, mutable</text>
    <text x="945" y="447" class="mod-sub">Params + overlay</text>
  </g>

  <!-- arrow 3 -->
  <line x1="570" y1="475" x2="570" y2="515" stroke="#444" stroke-width="2" marker-end="url(#arrow)"/>
  <text x="585" y="498" class="arrow-lbl">mTEPES (ConcreteModel + Sets + Params + Vars)</text>

  <!-- ================== LAYER 4: FORMULATION ================== -->
  <g>
    <rect x="20" y="520" width="1100" height="240" rx="10" fill="#fae6e0" stroke="#b03030" stroke-width="1.5"/>
    <rect x="20" y="520" width="140" height="240" rx="10" fill="#b03030"/>
    <text x="90" y="560" text-anchor="middle" class="layer-tag">LAYER 4</text>
    <text x="90" y="580" text-anchor="middle" class="layer-name">Formulation</text>
    <text x="90" y="600" text-anchor="middle" class="layer-note">openTEPES_Model-</text>
    <text x="90" y="613" text-anchor="middle" class="layer-note">Formulation*.py</text>
    <text x="90" y="630" text-anchor="middle" class="layer-note">(six files,</text>
    <text x="90" y="643" text-anchor="middle" class="layer-note">one per concern)</text>

    <!-- cross-sector modules -->
    <text x="318" y="548" text-anchor="middle" class="sector-tag">CROSS-SECTOR</text>
    <rect x="170" y="556" width="140" height="66" rx="8" fill="#d4efdf" stroke="#b03030" stroke-width="1.2"/>
    <text x="240" y="578" text-anchor="middle" class="mod">…Objective.py</text>
    <text x="240" y="594" text-anchor="middle" class="mod-sub">total cost o.f.</text>
    <text x="240" y="608" text-anchor="middle" class="mod-sub">+ stage costs</text>

    <rect x="325" y="556" width="140" height="66" rx="8" fill="#d4efdf" stroke="#b03030" stroke-width="1.2"/>
    <text x="395" y="578" text-anchor="middle" class="mod">…Investment.py</text>
    <text x="395" y="594" text-anchor="middle" class="mod-sub">4 sectors + adequacy</text>
    <text x="395" y="608" text-anchor="middle" class="mod-sub">emission · RES</text>

    <!-- one file per energy sector -->
    <text x="788" y="548" text-anchor="middle" class="sector-tag">ENERGY SECTORS  —  one file each</text>
    <rect x="480" y="556" width="165" height="66" rx="8" fill="#d4efdf" stroke="#b03030" stroke-width="1.2"/>
    <text x="562" y="578" text-anchor="middle" class="mod">…Electricity.py</text>
    <text x="562" y="594" text-anchor="middle" class="mod-sub">demand · reserves · storage</text>
    <text x="562" y="608" text-anchor="middle" class="mod-sub">UC · network · cycles</text>

    <rect x="660" y="556" width="140" height="66" rx="8" fill="#d4efdf" stroke="#b03030" stroke-width="1.2"/>
    <text x="730" y="578" text-anchor="middle" class="mod">…Hydro.py</text>
    <text x="730" y="594" text-anchor="middle" class="mod-sub">reservoir</text>
    <text x="730" y="608" text-anchor="middle" class="mod-sub">water balance</text>

    <rect x="815" y="556" width="140" height="66" rx="8" fill="#d4efdf" stroke="#b03030" stroke-width="1.2"/>
    <text x="885" y="578" text-anchor="middle" class="mod">…Hydrogen.py</text>
    <text x="885" y="594" text-anchor="middle" class="mod-sub">H2 network</text>
    <text x="885" y="608" text-anchor="middle" class="mod-sub">balance</text>

    <rect x="965" y="556" width="140" height="66" rx="8" fill="#d4efdf" stroke="#b03030" stroke-width="1.2"/>
    <text x="1035" y="578" text-anchor="middle" class="mod">…Heat.py</text>
    <text x="1035" y="594" text-anchor="middle" class="mod-sub">heat network</text>
    <text x="1035" y="608" text-anchor="middle" class="mod-sub">power-to-heat</text>

    <!-- planned, within / alongside these files -->
    <text x="240" y="650" text-anchor="middle" class="sector-tag">+ PLANNED</text>
    <rect x="170" y="658" width="475" height="62" rx="8" fill="#fff" stroke="#b03030" stroke-width="1.2" stroke-dasharray="4 3"/>
    <text x="407" y="680" text-anchor="middle" class="mod-flag">within …Electricity.py:  dc_opf / ac_opf  ·  unit commitment on/off</text>
    <text x="407" y="697" text-anchor="middle" class="mod-sub" font-style="italic">selectable formulation builders — picked by which functions the driver calls</text>
    <text x="407" y="711" text-anchor="middle" class="mod-sub" font-style="italic">same idea splits Heat / Hydrogen / Hydro into operation + network later</text>

    <rect x="660" y="658" width="445" height="62" rx="8" fill="#fff" stroke="#b03030" stroke-width="1.2" stroke-dasharray="4 3"/>
    <text x="882" y="680" text-anchor="middle" class="mod-flag">new sector files:  district cooling  ·  CCUS</text>
    <text x="882" y="697" text-anchor="middle" class="mod-sub" font-style="italic">drop-in: add one file per new energy carrier,</text>
    <text x="882" y="711" text-anchor="middle" class="mod-sub" font-style="italic">no edits to the existing sectors</text>
  </g>

  <!-- arrow 4 -->
  <line x1="570" y1="765" x2="570" y2="805" stroke="#444" stroke-width="2" marker-end="url(#arrow)"/>
  <text x="585" y="788" class="arrow-lbl">LP / MILP ready to solve</text>

  <!-- ================== LAYER 5: SOLVER ================== -->
  <g>
    <rect x="20" y="810" width="1100" height="80" rx="10" fill="#efebf7" stroke="#5d4a8a" stroke-width="1.5"/>
    <rect x="20" y="810" width="140" height="80" rx="10" fill="#5d4a8a"/>
    <text x="90" y="839" text-anchor="middle" class="layer-tag">LAYER 5</text>
    <text x="90" y="855" text-anchor="middle" class="layer-name">Solver</text>
    <text x="90" y="871" text-anchor="middle" class="layer-note">openTEPES_Problem-</text>
    <text x="90" y="883" text-anchor="middle" class="layer-note">Solving*.py</text>

    <rect x="168" y="827" width="128" height="46" rx="8" fill="#d4efdf" stroke="#5d4a8a" stroke-width="1.2"/>
    <text x="232" y="845" text-anchor="middle" class="mod">ProblemSolving.py</text>
    <text x="232" y="862" text-anchor="middle" class="mod-sub">orchestrator entry</text>

    <rect x="303" y="827" width="128" height="46" rx="8" fill="#d4efdf" stroke="#5d4a8a" stroke-width="1.2"/>
    <text x="367" y="845" text-anchor="middle" class="mod">…StageIter.py</text>
    <text x="367" y="862" text-anchor="middle" class="mod-sub">stage loop</text>

    <rect x="438" y="827" width="128" height="46" rx="8" fill="#d4efdf" stroke="#5d4a8a" stroke-width="1.2"/>
    <text x="502" y="845" text-anchor="middle" class="mod">…Tuning.py</text>
    <text x="502" y="862" text-anchor="middle" class="mod-sub">solver options</text>

    <rect x="573" y="827" width="128" height="46" rx="8" fill="#d4efdf" stroke="#5d4a8a" stroke-width="1.2"/>
    <text x="637" y="845" text-anchor="middle" class="mod">…DualExtraction.py</text>
    <text x="637" y="862" text-anchor="middle" class="mod-sub">duals via re-solve</text>

    <rect x="708" y="827" width="128" height="46" rx="8" fill="#d4efdf" stroke="#5d4a8a" stroke-width="1.2"/>
    <text x="772" y="845" text-anchor="middle" class="mod">…Persistent.py</text>
    <text x="772" y="862" text-anchor="middle" class="mod-sub">appsi persistent</text>

    <rect x="843" y="827" width="128" height="46" rx="8" fill="#d4efdf" stroke="#5d4a8a" stroke-width="1.2"/>
    <text x="907" y="845" text-anchor="middle" class="mod">…Benders.py</text>
    <text x="907" y="862" text-anchor="middle" class="mod-sub">L-shaped decomp</text>

    <rect x="978" y="827" width="128" height="46" rx="8" fill="#d4efdf" stroke="#5d4a8a" stroke-width="1.2"/>
    <text x="1042" y="844" text-anchor="middle" class="mod">resolve.py</text>
    <text x="1042" y="860" text-anchor="middle" class="mod-flag">★ hot-swap (Mode C)</text>
  </g>

  <!-- post-build hot-swap loop arrow (right side, Layer 5 back to Layer 3) -->
  <path d="M 1106 850 Q 1148 850 1148 415 Q 1148 388 930 388" stroke="#7a4a8a" stroke-width="1.6" fill="none" stroke-dasharray="6 4" marker-end="url(#arrowP)"/>
  <text x="1168" y="630" class="arrow-lblP" transform="rotate(-90, 1168, 630)">Mode C: Param.store_values() + re-solve</text>

  <!-- arrow 5 -->
  <line x1="570" y1="895" x2="570" y2="935" stroke="#444" stroke-width="2" marker-end="url(#arrow)"/>
  <text x="585" y="918" class="arrow-lbl">solved mTEPES</text>

  <!-- ================== LAYER 6: RESULTS ================== -->
  <g>
    <rect x="20" y="940" width="1100" height="240" rx="10" fill="#e8eef3" stroke="#336688" stroke-width="1.5"/>
    <rect x="20" y="940" width="140" height="240" rx="10" fill="#336688"/>
    <text x="90" y="970" text-anchor="middle" class="layer-tag">LAYER 6</text>
    <text x="90" y="988" text-anchor="middle" class="layer-name">Results</text>
    <text x="90" y="1004" text-anchor="middle" class="layer-note">openTEPES_Output</text>
    <text x="90" y="1016" text-anchor="middle" class="layer-note">Results*.py</text>
    <text x="90" y="1033" text-anchor="middle" class="layer-note">11 flat concern</text>
    <text x="90" y="1046" text-anchor="middle" class="layer-note">modules (split done)</text>
    <text x="247" y="962" text-anchor="middle" class="sector-tag">RAW · INVEST</text>
    <text x="391" y="962" text-anchor="middle" class="sector-tag">DISPATCH</text>
    <text x="535" y="962" text-anchor="middle" class="sector-tag">NETWORKS</text>
    <text x="679" y="962" text-anchor="middle" class="sector-tag">ECON · SUMMARY</text>
    <text x="823" y="962" text-anchor="middle" class="sector-tag">SHARED</text>
    <text x="967" y="962" text-anchor="middle" class="sector-tag">SWEEPS · planned</text>
    <rect x="178" y="970" width="138" height="40" rx="8" fill="#d4efdf" stroke="#2e7d5f" stroke-width="1.2"/>
    <text x="247" y="988" text-anchor="middle" class="mod">…RawDump.py</text>
    <text x="247" y="1002" text-anchor="middle" class="mod-sub">ParVarCon · DB dump</text>
    <rect x="178" y="1016" width="138" height="40" rx="8" fill="#d4efdf" stroke="#2e7d5f" stroke-width="1.2"/>
    <text x="247" y="1034" text-anchor="middle" class="mod">…Investment.py</text>
    <text x="247" y="1048" text-anchor="middle" class="mod-sub">capacity additions</text>
    <rect x="322" y="970" width="138" height="40" rx="8" fill="#d4efdf" stroke="#2e7d5f" stroke-width="1.2"/>
    <text x="391" y="988" text-anchor="middle" class="mod">…Generation.py</text>
    <text x="391" y="1002" text-anchor="middle" class="mod-sub">elec + heat dispatch</text>
    <rect x="322" y="1016" width="138" height="40" rx="8" fill="#d4efdf" stroke="#2e7d5f" stroke-width="1.2"/>
    <text x="391" y="1034" text-anchor="middle" class="mod">…Storage.py</text>
    <text x="391" y="1048" text-anchor="middle" class="mod-sub">ESS · reservoir</text>
    <rect x="466" y="970" width="138" height="40" rx="8" fill="#d4efdf" stroke="#2e7d5f" stroke-width="1.2"/>
    <text x="535" y="988" text-anchor="middle" class="mod">…Network.py</text>
    <text x="535" y="1002" text-anchor="middle" class="mod-sub">elec flows · map</text>
    <rect x="466" y="1016" width="138" height="40" rx="8" fill="#d4efdf" stroke="#2e7d5f" stroke-width="1.2"/>
    <text x="535" y="1034" text-anchor="middle" class="mod">…Hydrogen.py</text>
    <text x="535" y="1048" text-anchor="middle" class="mod-sub">H2 pipe network</text>
    <rect x="466" y="1062" width="138" height="40" rx="8" fill="#d4efdf" stroke="#2e7d5f" stroke-width="1.2"/>
    <text x="535" y="1080" text-anchor="middle" class="mod">…Heat.py</text>
    <text x="535" y="1094" text-anchor="middle" class="mod-sub">heat pipe network</text>
    <rect x="610" y="970" width="138" height="40" rx="8" fill="#d4efdf" stroke="#2e7d5f" stroke-width="1.2"/>
    <text x="679" y="988" text-anchor="middle" class="mod">…Economic.py</text>
    <text x="679" y="1002" text-anchor="middle" class="mod-sub">cost · marginal · econ</text>
    <rect x="610" y="1016" width="138" height="40" rx="8" fill="#d4efdf" stroke="#2e7d5f" stroke-width="1.2"/>
    <text x="679" y="1034" text-anchor="middle" class="mod">…Summary.py</text>
    <text x="679" y="1048" text-anchor="middle" class="mod-sub">summary · flex · reliab</text>
    <rect x="754" y="970" width="138" height="40" rx="8" fill="#d4efdf" stroke="#2e7d5f" stroke-width="1.2"/>
    <text x="823" y="988" text-anchor="middle" class="mod">…Common.py</text>
    <text x="823" y="1002" text-anchor="middle" class="mod-sub">out-dir · Altair plots</text>
    <rect x="754" y="1016" width="138" height="40" rx="8" fill="#d4efdf" stroke="#2e7d5f" stroke-width="1.2"/>
    <text x="823" y="1034" text-anchor="middle" class="mod">…MapCommon.py</text>
    <text x="823" y="1048" text-anchor="middle" class="mod-sub">flow-series · snapshot</text>
    <text x="535" y="1108" text-anchor="middle" class="mod-flag">▲ Hydrogen + Heat split from sector-coupling (PR #128)</text>
    <rect x="898" y="970" width="138" height="40" rx="8" fill="#fff" stroke="#7a4a8a" stroke-width="1.5"/>
    <text x="967" y="988" text-anchor="middle" class="mod">aggregate.py</text>
    <text x="967" y="1002" text-anchor="middle" class="mod-flag">★ merge sweep outputs</text>
    <rect x="898" y="1016" width="138" height="40" rx="8" fill="#fff" stroke="#336688" stroke-width="1.2" stroke-dasharray="4 3"/>
    <text x="967" y="1034" text-anchor="middle" class="mod">mcda.py</text>
    <text x="967" y="1048" text-anchor="middle" class="mod-sub" font-style="italic">optional · ext tooling</text>
  </g>

  <!-- ================== TESTS / OUTPUTS ================== -->
  <g>
    <rect x="20" y="1195" width="1100" height="80" rx="10" fill="#f3f3f3" stroke="#999" stroke-width="1.2" stroke-dasharray="5 4"/>
    <text x="50" y="1218" class="sector-tag">TESTS &amp; OUTPUTS</text>

    <rect x="180" y="1222" width="160" height="42" rx="8" fill="#fff" stroke="#777" stroke-width="1.0"/>
    <text x="260" y="1240" text-anchor="middle" class="mod">tests/parity</text>
    <text x="260" y="1255" text-anchor="middle" class="mod-sub">CSV ↔ DuckDB</text>

    <rect x="355" y="1222" width="160" height="42" rx="8" fill="#fff" stroke="#777" stroke-width="1.0"/>
    <text x="435" y="1240" text-anchor="middle" class="mod">tests/e2e</text>
    <text x="435" y="1255" text-anchor="middle" class="mod-sub">9n · 9n_PTDF · sSEP</text>

    <rect x="530" y="1222" width="160" height="42" rx="8" fill="#fff" stroke="#777" stroke-width="1.0"/>
    <text x="610" y="1240" text-anchor="middle" class="mod">tests/sweep</text>
    <text x="610" y="1255" text-anchor="middle" class="mod-sub">runner integration</text>

    <rect x="705" y="1222" width="195" height="42" rx="8" fill="#fff" stroke="#777" stroke-width="1.0"/>
    <text x="802" y="1240" text-anchor="middle" class="mod">CSV + DuckDB</text>
    <text x="802" y="1255" text-anchor="middle" class="mod-sub">oT_Result_*.csv · *.duckdb</text>

    <rect x="915" y="1222" width="190" height="42" rx="8" fill="#fff" stroke="#777" stroke-width="1.0"/>
    <text x="1010" y="1240" text-anchor="middle" class="mod">plots + maps + aggregate</text>
    <text x="1010" y="1255" text-anchor="middle" class="mod-sub">PNG · HTML · sweep tables</text>
  </g>

  <!-- ================== PARALLELISATION MODES PANEL ================== -->
  <g>
    <rect x="20" y="1290" width="1100" height="125" rx="10" fill="#f6effa" stroke="#7a4a8a" stroke-width="1.5"/>
    <rect x="20" y="1290" width="140" height="125" rx="10" fill="#7a4a8a"/>
    <text x="90" y="1320" text-anchor="middle" class="layer-tag">SWEEP MODES</text>
    <text x="90" y="1341" text-anchor="middle" class="layer-name">parallel</text>
    <text x="90" y="1361" text-anchor="middle" class="layer-note">runner.py</text>
    <text x="90" y="1374" text-anchor="middle" class="layer-note">orchestrates</text>
    <text x="90" y="1387" text-anchor="middle" class="layer-note">all three modes</text>

    <!-- Mode A -->
    <rect x="180" y="1303" width="295" height="100" rx="8" fill="#fff" stroke="#7a4a8a" stroke-width="1.4"/>
    <text x="327" y="1322" text-anchor="middle" class="mod">A · pre-build sweep</text>
    <text x="327" y="1337" text-anchor="middle" class="mod-flag">workers diverge at LAYER 2 (io/)</text>
    <text x="327" y="1354" text-anchor="middle" class="mod-sub">each worker reads its own perturbed source,</text>
    <text x="327" y="1368" text-anchor="middle" class="mod-sub">builds its own model, solves independently</text>
    <text x="327" y="1383" text-anchor="middle" class="mod-sub">cost: full I/O + build + solve per worker</text>
    <text x="327" y="1397" text-anchor="middle" class="mod-sub">use: scenario ensembles · slurm arrays</text>

    <!-- Mode B -->
    <rect x="485" y="1303" width="305" height="100" rx="8" fill="#fff" stroke="#7a4a8a" stroke-width="1.4"/>
    <text x="637" y="1322" text-anchor="middle" class="mod">B · in-memory overlay</text>
    <text x="637" y="1337" text-anchor="middle" class="mod-flag">workers diverge at LAYER 3 (model/)</text>
    <text x="637" y="1354" text-anchor="middle" class="mod-sub">shared baseline DataFrames in RAM;</text>
    <text x="637" y="1368" text-anchor="middle" class="mod-sub">each worker applies its own overlay dict</text>
    <text x="637" y="1383" text-anchor="middle" class="mod-sub">cost: build + solve per worker (no re-I/O)</text>
    <text x="637" y="1397" text-anchor="middle" class="mod-sub">use: parameter sweeps · Monte-Carlo demand</text>

    <!-- Mode C -->
    <rect x="800" y="1303" width="305" height="100" rx="8" fill="#fff" stroke="#7a4a8a" stroke-width="1.4"/>
    <text x="952" y="1322" text-anchor="middle" class="mod">C · post-build hot-swap</text>
    <text x="952" y="1337" text-anchor="middle" class="mod-flag">workers diverge at LAYER 5 (solver/)</text>
    <text x="952" y="1354" text-anchor="middle" class="mod-sub">one built model, Param.store_values() +</text>
    <text x="952" y="1368" text-anchor="middle" class="mod-sub">re-solve under fork() copy-on-write</text>
    <text x="952" y="1383" text-anchor="middle" class="mod-sub">cost: solve only (cheapest)</text>
    <text x="952" y="1397" text-anchor="middle" class="mod-sub">needs: mutable=True · Unix fork · warm start</text>
  </g>

  <text x="570" y="1437" text-anchor="middle" class="footer">
    Each box ↔ one module (~150–400 lines). Green = implemented (merged upstream); white = planned (names indicative). Adding a sector = new modules in Layer 4 + Layer 6 + an entry in openTEPES_InputSchema.py. ★ marks sweep-enabling additions.
  </text>
</svg>
